# xmcd
#
# Track frame offsets: 
#        150
#        16861
#        39975
#        52094
#        69709
#        88403
#        119328
#
# Disc length: 1768 seconds
#
# Revision: 0
# Processed by: cddbd v1.5.2PL0 Copyright (c) Steve Scherf et al.
# Submitted via: ExactAudioCopy v1.3
#
DISCID=5d06e607
DTITLE=David Ralston - Okinawa
DYEAR=2013
DGENRE=Slide Guitar Blues
TTITLE0=Okinawa Is My Home
TTITLE1=Red Wine and Moonshine
TTITLE2=Tenton Mushi
TTITLE3=Umi To Shima
TTITLE4=Adalina
TTITLE5=No Woman No Cry
TTITLE6=Walked Away
EXTD=
EXTT0=
EXTT1=
EXTT2=
EXTT3=
EXTT4=
EXTT5=
EXTT6=
PLAYORDER=
